<svg xmlns="http://www.w3.org/2000/svg" width="560" height="160" viewBox="0 0 280 80" fill="none" style="transition: 0.3s;"><defs><linearGradient id="logoGradient" x1="0%" y1="0%" x2="100%" y2="100%"><stop offset="0%" stop-color="#0A1628"/><stop offset="100%" stop-color="#0891B2"/></linearGradient><linearGradient id="logoGradientWhite" x1="0%" y1="0%" x2="100%" y2="100%"><stop offset="0%" stop-color="#ffffff"/><stop offset="100%" stop-color="#0891B2"/></linearGradient><filter id="shadow" x="-20%" y="-20%" width="140%" height="140%"><feDropShadow dx="2" dy="4" stdDeviation="3" flood-color="#0A1628" flood-opacity="0.2"/></filter></defs><g filter="url(#shadow)"><path d="M10 15 L10 45 L20 45 L20 32 L28 40 L32 36 L24 28 L32 20 L28 16 L20 24 L20 15 Z" fill="url(#logoGradient)"/><rect x="35" y="35" width="8" height="10" fill="url(#logoGradient)" rx="2"/><rect x="45" y="25" width="8" height="20" fill="url(#logoGradient)" rx="2"/><rect x="55" y="15" width="8" height="30" fill="url(#logoGradient)" rx="2"/><path d="M33 30 Q39 28 39 32 Q45 30 45 34 Q55 28 55 32" stroke="#0891B2" stroke-width="2" fill="none" opacity="0.6"/></g><g fill="#0A1628"><text x="80" y="30" font-size="24" font-weight="700" font-family="Inter, sans-serif">KIMELIA</text><text x="80" y="50" font-size="16" font-weight="400" font-family="Inter, sans-serif" opacity="0.8">SOFT</text></g></svg>